<svg xmlns="http://www.w3.org/2000/svg" viewBox="0 0 162 54.15"><defs><style>.cls-1{fill:#1c1d1c;}.cls-2{fill:#fff;}</style></defs><title>Ресурс 1011</title><g id="Слой_2" data-name="Слой 2"><g id="ui"><path class="cls-1" d="M149.1,0H11.43L10.18,0A17.89,17.89,0,0,0,7.47.26a9,9,0,0,0-2.57.85A8.72,8.72,0,0,0,2.7,2.7,8.47,8.47,0,0,0,1.11,4.9,8.94,8.94,0,0,0,.26,7.47,17.59,17.59,0,0,0,0,10.19c0,.42,0,.83,0,1.25V42.72c0,.42,0,.83,0,1.25a17.59,17.59,0,0,0,.24,2.71,8.92,8.92,0,0,0,.85,2.58,8.4,8.4,0,0,0,1.6,2.19A8.49,8.49,0,0,0,4.9,53a9.07,9.07,0,0,0,2.57.85,18.22,18.22,0,0,0,2.71.24H151.81a18,18,0,0,0,2.71-.24,9.21,9.21,0,0,0,2.58-.85,8.5,8.5,0,0,0,2.19-1.6,8.66,8.66,0,0,0,1.6-2.19,8.94,8.94,0,0,0,.84-2.58A18.28,18.28,0,0,0,162,44c0-.42,0-.83,0-1.25s0-1,0-1.48V12.91c0-.5,0-1,0-1.48s0-.83,0-1.25a18.29,18.29,0,0,0-.25-2.71,9,9,0,0,0-.84-2.58,8.75,8.75,0,0,0-3.79-3.79,9.16,9.16,0,0,0-2.58-.85A17.66,17.66,0,0,0,151.81,0l-1.25,0Z"/><path class="cls-2" d="M11.43,53H10.21a17.18,17.18,0,0,1-2.53-.22A8,8,0,0,1,5.44,52a7.32,7.32,0,0,1-1.89-1.38,7.2,7.2,0,0,1-1.38-1.89,7.75,7.75,0,0,1-.74-2.24,16.81,16.81,0,0,1-.23-2.54c0-.29,0-1.24,0-1.24V11.43s0-.94,0-1.21a16.75,16.75,0,0,1,.22-2.53,7.79,7.79,0,0,1,.74-2.25A7.27,7.27,0,0,1,3.54,3.54a7.53,7.53,0,0,1,1.9-1.38,7.88,7.88,0,0,1,2.24-.74,17,17,0,0,1,2.54-.22l1.22,0H150.56l1.24,0a16.77,16.77,0,0,1,2.52.22,8,8,0,0,1,2.26.74,7.57,7.57,0,0,1,3.27,3.28,7.8,7.8,0,0,1,.72,2.23,17.59,17.59,0,0,1,.24,2.55c0,.38,0,.8,0,1.21s0,1,0,1.48V41.24c0,.49,0,1,0,1.46s0,.84,0,1.26a17.24,17.24,0,0,1-.23,2.51,7.77,7.77,0,0,1-.73,2.26,7.42,7.42,0,0,1-1.37,1.88A7.33,7.33,0,0,1,156.57,52a7.94,7.94,0,0,1-2.26.74,17,17,0,0,1-2.53.22H11.43Z"/><g id="_Группа_" data-name="&lt;Группа&gt;"><g id="_Группа_2" data-name="&lt;Группа&gt;"><g id="_Группа_3" data-name="&lt;Группа&gt;"><path id="_Контур_" data-name="&lt;Контур&gt;" class="cls-1" d="M33.84,26.93a7,7,0,0,1,3.32-5.85,7.13,7.13,0,0,0-5.62-3c-2.36-.25-4.66,1.41-5.86,1.41s-3.08-1.39-5.08-1.35a7.48,7.48,0,0,0-6.3,3.84c-2.72,4.71-.69,11.64,1.92,15.45,1.3,1.87,2.83,4,4.83,3.88s2.68-1.25,5-1.25,3,1.25,5.06,1.2,3.42-1.87,4.67-3.76A15.43,15.43,0,0,0,38,33.12,6.73,6.73,0,0,1,33.84,26.93Z"/><path id="_Контур_2" data-name="&lt;Контур&gt;" class="cls-1" d="M30,15.54a6.86,6.86,0,0,0,1.57-4.91A7,7,0,0,0,27,13a6.53,6.53,0,0,0-1.61,4.73A5.77,5.77,0,0,0,30,15.54Z"/></g></g><path class="cls-1" d="M57.27,36.74H50.86l-1.54,4.54H46.61l6.07-16.81H55.5l6.07,16.81H58.81Zm-5.74-2.1H56.6l-2.5-7.37H54Z"/><path class="cls-1" d="M74.67,35.16c0,3.81-2,6.26-5.12,6.26a4.16,4.16,0,0,1-3.86-2.14h-.06v6.07H63.13V29h2.44v2h0a4.35,4.35,0,0,1,3.9-2.17C72.62,28.9,74.67,31.36,74.67,35.16Zm-2.59,0c0-2.48-1.28-4.11-3.24-4.11s-3.22,1.67-3.22,4.11,1.29,4.12,3.22,4.12S72.09,37.66,72.09,35.16Z"/><path class="cls-1" d="M88.16,35.16c0,3.81-2,6.26-5.12,6.26a4.16,4.16,0,0,1-3.86-2.14h-.06v6.07H76.62V29h2.44v2h0A4.35,4.35,0,0,1,83,28.9C86.11,28.9,88.16,31.36,88.16,35.16Zm-2.59,0c0-2.48-1.28-4.11-3.24-4.11s-3.22,1.67-3.22,4.11,1.29,4.12,3.22,4.12S85.58,37.66,85.58,35.16Z"/><path class="cls-1" d="M97.08,36.6c.19,1.67,1.81,2.76,4,2.76s3.65-1.09,3.65-2.6c0-1.3-.92-2.09-3.1-2.62l-2.18-.52c-3.09-.75-4.52-2.19-4.52-4.53,0-2.9,2.53-4.89,6.12-4.89s6,2,6.07,4.89h-2.54c-.15-1.68-1.54-2.69-3.57-2.69s-3.41,1-3.41,2.52c0,1.19.89,1.89,3.05,2.42l1.85.45c3.45.82,4.88,2.2,4.88,4.66,0,3.15-2.5,5.12-6.49,5.12-3.73,0-6.25-1.92-6.41-5Z"/><path class="cls-1" d="M112.83,26.13V29h2.33v2h-2.33v6.76c0,1,.47,1.54,1.49,1.54a7.86,7.86,0,0,0,.83-.06v2a6.91,6.91,0,0,1-1.4.12c-2.48,0-3.45-.93-3.45-3.31V31h-1.78V29h1.78v-2.9Z"/><path class="cls-1" d="M116.51,35.16c0-3.86,2.27-6.28,5.81-6.28s5.81,2.42,5.81,6.28-2.25,6.28-5.81,6.28S116.51,39,116.51,35.16Zm9.06,0c0-2.65-1.21-4.21-3.25-4.21s-3.25,1.57-3.25,4.21,1.21,4.21,3.25,4.21S125.58,37.81,125.58,35.16Z"/><path class="cls-1" d="M130.21,29h2.4v2.09h.06a2.92,2.92,0,0,1,2.95-2.21,3.88,3.88,0,0,1,.86.09v2.35a3.52,3.52,0,0,0-1.13-.15A2.54,2.54,0,0,0,132.73,34v7.27h-2.52Z"/><path class="cls-1" d="M148.08,37.69c-.34,2.23-2.51,3.75-5.28,3.75-3.57,0-5.78-2.39-5.78-6.22s2.23-6.34,5.67-6.34,5.52,2.33,5.52,6v.86h-8.66v.15a3.19,3.19,0,0,0,3.3,3.47,2.77,2.77,0,0,0,2.83-1.72ZM139.58,34h6.13a3,3,0,0,0-3-3.11A3.1,3.1,0,0,0,139.58,34Z"/></g><g id="_Группа_4" data-name="&lt;Группа&gt;"><path class="cls-1" d="M49.74,15.23h1.08a1.36,1.36,0,0,0,1.52-1.29c0-.74-.56-1.23-1.51-1.23A1.44,1.44,0,0,0,49.2,14H48c.08-1.46,1.17-2.36,2.85-2.36s2.71.89,2.71,2.17a1.88,1.88,0,0,1-1.47,1.85v.1a1.88,1.88,0,0,1,1.8,2c0,1.38-1.31,2.4-3,2.4s-3-1-3-2.39h1.2c.07.77.78,1.27,1.83,1.27s1.73-.56,1.73-1.35-.64-1.29-1.77-1.29H49.74Z"/><path class="cls-1" d="M55.27,18.17c0-1.1.82-1.73,2.27-1.82l1.65-.1v-.53c0-.64-.42-1-1.25-1-.67,0-1.14.25-1.27.68H55.51c.12-1,1.11-1.72,2.49-1.72s2.39.76,2.39,2V19.9H59.23V19h-.1a2.05,2.05,0,0,1-1.83,1A1.84,1.84,0,0,1,55.27,18.17Zm3.92-.52v-.51l-1.49.1c-.84.06-1.22.34-1.22.88S57,19,57.61,19A1.44,1.44,0,0,0,59.19,17.65Z"/><path class="cls-1" d="M63.58,14.81V19.9h-1.2V13.8h4v1Z"/><path class="cls-1" d="M73.69,16.85c0,1.94-1,3.15-2.52,3.15a2,2,0,0,1-1.88-1h-.1v3H68V13.8h1.16v1h.09a2.12,2.12,0,0,1,1.91-1.11C72.71,13.7,73.69,14.91,73.69,16.85Zm-1.24,0c0-1.29-.61-2.07-1.63-2.07s-1.65.79-1.65,2.07.63,2.07,1.64,2.07S72.45,18.14,72.45,16.85Z"/><path class="cls-1" d="M75.29,22.08V21a2.84,2.84,0,0,0,.39,0,1,1,0,0,0,1.1-.85l.09-.3L74.67,13.8H76l1.53,4.84h.1l1.52-4.84H80.4l-2.27,6.35c-.52,1.48-1.1,2-2.34,2C75.69,22.11,75.4,22.1,75.29,22.08Z"/><path class="cls-1" d="M81.34,18.17h1.2c.12.54.62.82,1.33.82s1.29-.35,1.29-.9-.44-.87-1.29-.87h-.91v-.93h.9c.73,0,1.1-.28,1.1-.79s-.36-.79-1.1-.79-1.16.29-1.24.77H81.44a2.14,2.14,0,0,1,2.4-1.79c1.45,0,2.28.66,2.28,1.68a1.25,1.25,0,0,1-1,1.25v.1a1.37,1.37,0,0,1,1.19,1.37c0,1.16-1,1.93-2.49,1.93C82.53,20,81.45,19.4,81.34,18.17Z"/><path class="cls-1" d="M88.09,19.9V13.8h1.19V18h.1l2.81-4.19h1.19v6.1H92.18V15.68h-.09L89.28,19.9Z"/><path class="cls-1" d="M99.94,14.81H98V19.9h-1.2V14.81H94.9v-1h5Z"/><path class="cls-1" d="M106.43,18.25A2.48,2.48,0,0,1,103.78,20C102,20,101,18.82,101,16.87s1.09-3.18,2.81-3.18,2.72,1.16,2.72,3.07v.42h-4.3v.07A1.61,1.61,0,0,0,103.82,19a1.46,1.46,0,0,0,1.45-.74Zm-4.23-2h3.08a1.47,1.47,0,0,0-1.5-1.58A1.56,1.56,0,0,0,102.19,16.29Z"/><path class="cls-1" d="M111.53,13.8h2.75c1.19,0,1.89.6,1.89,1.55a1.31,1.31,0,0,1-1,1.29v.1a1.39,1.39,0,0,1,1.3,1.41c0,1.06-.8,1.76-2.14,1.76h-2.78Zm1.19.92V16.3h1.19c.73,0,1.07-.28,1.07-.8s-.3-.78-.94-.78Zm0,2.46V19h1.43c.71,0,1.09-.31,1.09-.89s-.43-.9-1.24-.9Z"/></g></g></g></svg>