<svg xmlns="http://www.w3.org/2000/svg" viewBox="0 0 41.97 17.47"><defs><style>.cls-1,.cls-2,.cls-3{fill:#fff;}.cls-1{opacity:0.15;}.cls-3{font-size:12px;font-family:SFProText-Regular, SF Pro Text;}.cls-4{fill:none;stroke:#fff;stroke-miterlimit:10;stroke-width:0.5px;opacity:0.2;}</style></defs><title>Ресурс 811</title><g id="Слой_2" data-name="Слой 2"><g id="ui"><rect class="cls-1" width="41.97" height="15.16" rx="2.57" ry="2.57"/><path class="cls-2" d="M12.57,1.69H2.69a1,1,0,0,0-1,1v9.89a1,1,0,0,0,1,1H6.84V8.45H5.55V6.64H6.84V5.55c0-1.46.77-2.3,2.85-2.3h1.57v1.8h-.89c-.81,0-.93.16-.93.62v1H11.4l-.23,1.81H9.45v5.21h3.12a1,1,0,0,0,1-1V2.73A1,1,0,0,0,12.57,1.69Z"/><text class="cls-3" transform="translate(18.55 12.19)">123</text><line class="cls-4" x1="15.09" x2="15.09" y2="15.16"/></g></g></svg>