<svg xmlns="http://www.w3.org/2000/svg" viewBox="0 0 44.2 17.47"><defs><style>.cls-1,.cls-2,.cls-3{fill:#fff;}.cls-1{opacity:0.15;}.cls-3{font-size:12px;font-family:SFProText-Regular, SF Pro Text;}.cls-4{letter-spacing:-0.01em;}.cls-5{fill:none;stroke:#fff;stroke-miterlimit:10;stroke-width:0.5px;opacity:0.2;}</style></defs><title>Ресурс 911</title><g id="Слой_2" data-name="Слой 2"><g id="ui"><rect class="cls-1" width="44.2" height="15.16" rx="2.57" ry="2.57"/><path class="cls-2" d="M10.18,7.65a11.61,11.61,0,0,0,1.19-2.09c0-.18,0-.29-.23-.29H10.2a.34.34,0,0,0-.36.24A8.82,8.82,0,0,1,8.72,7.32c-.2.23-.3.29-.41.29s-.13-.08-.13-.28V5.54c0-.25,0-.33-.23-.33H6.45a.17.17,0,0,0-.19.16c0,.24.35.29.35.93V7.63c0,.27,0,.37-.14.37C6.15,8,5.39,6.86,5,5.56c-.09-.27-.18-.34-.42-.34H3.6a.23.23,0,0,0-.24.24A7.1,7.1,0,0,0,4.81,8.51a3.54,3.54,0,0,0,2.71,1.66c.56,0,.69-.1.69-.34V9c0-.21.08-.3.19-.3s.36,0,.89.58.67.88,1,.88h1.05c.11,0,.21-.05.21-.24a2.63,2.63,0,0,0-.78-1.2c-.19-.27-.51-.55-.61-.69S10.08,7.81,10.18,7.65Zm-7.52,6a1,1,0,0,1-1-1V2.74a1,1,0,0,1,1-1h9.62a1,1,0,0,1,1,1v9.92a1,1,0,0,1-1,1Z"/><text class="cls-3" transform="translate(18.39 12.19)"><tspan class="cls-4">2</tspan><tspan x="7.07" y="0">45</tspan></text><line class="cls-5" x1="15.09" x2="15.09" y2="15.16"/></g></g></svg>